<svg xmlns="http://www.w3.org/2000/svg" xmlns:xlink="http://www.w3.org/1999/xlink" width="1080" zoomAndPan="magnify" viewBox="0 0 810 1012.49997" height="1350" preserveAspectRatio="xMidYMid meet" version="1.0"><defs><g/><clipPath id="07f6e1468e"><path d="M 0.199219 445.28125 L 60.921875 445.28125 L 60.921875 566.71875 L 0.199219 566.71875 Z M 0.199219 445.28125 " clip-rule="nonzero"/></clipPath><clipPath id="051644f1e8"><path d="M 0.199219 445.28125 C -33.335938 445.28125 -60.519531 472.464844 -60.519531 506 C -60.519531 539.535156 -33.335938 566.71875 0.199219 566.71875 C 33.734375 566.71875 60.921875 539.535156 60.921875 506 C 60.921875 472.464844 33.734375 445.28125 0.199219 445.28125 Z M 0.199219 445.28125 " clip-rule="nonzero"/></clipPath><clipPath id="388f294451"><path d="M 749.152344 445.28125 L 809.800781 445.28125 L 809.800781 566.71875 L 749.152344 566.71875 Z M 749.152344 445.28125 " clip-rule="nonzero"/></clipPath><clipPath id="8a2d33bca7"><path d="M 809.871094 445.28125 C 776.335938 445.28125 749.152344 472.464844 749.152344 506 C 749.152344 539.535156 776.335938 566.71875 809.871094 566.71875 C 843.40625 566.71875 870.589844 539.535156 870.589844 506 C 870.589844 472.464844 843.40625 445.28125 809.871094 445.28125 Z M 809.871094 445.28125 " clip-rule="nonzero"/></clipPath><clipPath id="352b830e20"><path d="M 726 931.039062 L 741 931.039062 L 741 938 L 726 938 Z M 726 931.039062 " clip-rule="nonzero"/></clipPath><clipPath id="6a95da2046"><path d="M 721.914062 937 L 745.902344 937 L 745.902344 959.527344 L 721.914062 959.527344 Z M 721.914062 937 " clip-rule="nonzero"/></clipPath></defs><g clip-path="url(#07f6e1468e)"><g clip-path="url(#051644f1e8)"><path fill="#4c5a89" d="M -60.519531 445.28125 L 60.921875 445.28125 L 60.921875 566.71875 L -60.519531 566.71875 Z M -60.519531 445.28125 " fill-opacity="1" fill-rule="nonzero"/></g></g><g clip-path="url(#388f294451)"><g clip-path="url(#8a2d33bca7)"><path fill="#4c5a89" d="M 749.152344 445.28125 L 870.589844 445.28125 L 870.589844 566.71875 L 749.152344 566.71875 Z M 749.152344 445.28125 " fill-opacity="1" fill-rule="nonzero"/></g></g><g clip-path="url(#352b830e20)"><path fill="#9fb8cf" d="M 730.820312 937.113281 C 731.0625 937.113281 731.277344 936.976562 731.382812 936.746094 C 731.523438 936.441406 731.382812 936.074219 731.0625 935.9375 L 729.109375 935.097656 C 730.132812 934.195312 731.382812 933.507812 732.730469 933.15625 C 733.402344 932.972656 734.132812 932.898438 734.835938 932.898438 C 734.972656 932.898438 735.339844 932.929688 735.476562 932.929688 C 735.617188 932.945312 735.96875 933.003906 736.121094 933.019531 C 736.320312 933.066406 736.546875 933.113281 736.746094 933.15625 C 736.882812 933.203125 737.203125 933.308594 737.359375 933.355469 C 737.480469 933.417969 737.832031 933.570312 737.953125 933.617188 C 738.074219 933.691406 738.382812 933.859375 738.519531 933.9375 C 739.511719 934.578125 740.289062 935.480469 740.792969 936.550781 C 740.335938 935.28125 739.449219 934.164062 738.320312 933.417969 L 738.136719 933.292969 L 737.9375 933.1875 L 737.539062 932.972656 L 737.113281 932.789062 C 736.714844 932.621094 736.226562 932.46875 735.800781 932.394531 C 735.675781 932.363281 735.476562 932.332031 735.339844 932.316406 C 732.972656 931.949219 730.542969 932.636719 728.589844 933.996094 L 729.476562 931.933594 C 729.613281 931.628906 729.476562 931.261719 729.152344 931.125 C 728.847656 930.988281 728.480469 931.125 728.34375 931.445312 L 726.664062 935.371094 L 730.589844 937.054688 C 730.667969 937.082031 730.742188 937.097656 730.835938 937.097656 Z M 730.820312 937.113281 " fill-opacity="1" fill-rule="nonzero"/></g><g clip-path="url(#6a95da2046)"><path fill="#4c5a89" d="M 745.761719 951.519531 L 744.8125 949.566406 C 744.460938 948.601562 744.429688 948.023438 744.398438 947.457031 C 744.371094 946.832031 744.324219 946.171875 743.878906 945.195312 C 743.605469 944.601562 743.390625 944.339844 742.582031 943.347656 C 742.292969 942.996094 741.925781 942.550781 741.453125 941.957031 C 740.855469 941.222656 740.277344 940.476562 739.695312 939.742188 C 738.992188 938.839844 737.707031 938.609375 736.792969 939.222656 C 736.746094 939.253906 736.683594 939.296875 736.640625 939.328125 C 736.273438 939.605469 736.011719 939.984375 735.859375 940.414062 C 735.648438 940.261719 735.386719 940.152344 735.128906 940.125 C 734.5 940.046875 733.859375 940.214844 733.371094 940.597656 C 733.324219 940.628906 733.277344 940.671875 733.234375 940.71875 C 732.972656 940.964844 732.789062 941.253906 732.667969 941.574219 C 731.933594 940.855469 730.804688 940.71875 729.949219 941.269531 C 729.902344 941.300781 729.839844 941.347656 729.796875 941.375 C 729.488281 941.621094 729.246094 941.941406 729.09375 942.292969 L 725.792969 938.105469 C 725.089844 937.207031 723.808594 936.992188 722.890625 937.601562 C 722.84375 937.632812 722.785156 937.679688 722.738281 937.710938 C 722.691406 937.742188 722.644531 937.785156 722.601562 937.832031 C 721.789062 938.566406 721.683594 939.804688 722.355469 940.71875 L 728.128906 948.648438 C 727.871094 948.710938 727.609375 948.800781 727.382812 948.921875 C 727.105469 949.0625 726.433594 949.472656 726.039062 950.296875 C 725.304688 951.78125 725.882812 953.859375 727.214844 954.574219 L 736.808594 959.160156 C 737.34375 959.417969 737.90625 959.539062 738.472656 959.539062 C 739.25 959.539062 740.015625 959.3125 740.671875 958.851562 L 744.890625 955.917969 C 746.308594 954.941406 746.691406 952.988281 745.761719 951.535156 Z M 744.1875 954.894531 L 739.96875 957.828125 C 739.191406 958.363281 738.183594 958.457031 737.328125 958.042969 L 727.824219 953.507812 L 727.792969 953.507812 C 727.105469 953.125 726.664062 951.796875 727.136719 950.832031 C 727.382812 950.328125 727.808594 950.070312 727.945312 950.007812 C 728.359375 949.792969 728.757812 949.792969 728.984375 949.808594 L 730.484375 951.855469 C 730.605469 952.023438 730.789062 952.101562 730.972656 952.101562 C 731.15625 952.101562 731.214844 952.070312 731.339844 951.976562 C 731.613281 951.78125 731.675781 951.398438 731.476562 951.121094 L 723.332031 940 C 723.042969 939.605469 723.089844 939.054688 723.425781 938.734375 C 723.441406 938.71875 723.472656 938.703125 723.484375 938.671875 C 723.515625 938.65625 723.53125 938.640625 723.5625 938.625 C 723.960938 938.367188 724.523438 938.472656 724.832031 938.871094 L 731.125 946.84375 C 731.140625 946.875 731.171875 946.890625 731.1875 946.921875 C 731.1875 946.921875 731.1875 946.921875 731.199219 946.9375 C 731.230469 946.96875 731.277344 947 731.308594 947.011719 C 731.308594 947.011719 731.324219 947.011719 731.339844 947.011719 C 731.367188 947.011719 731.398438 947.042969 731.429688 947.042969 C 731.429688 947.042969 731.460938 947.042969 731.476562 947.042969 C 731.507812 947.042969 731.535156 947.042969 731.566406 947.042969 C 731.566406 947.042969 731.582031 947.042969 731.597656 947.042969 C 731.613281 947.042969 731.613281 947.042969 731.628906 947.042969 C 731.628906 947.042969 731.660156 947.042969 731.660156 947.042969 C 731.691406 947.042969 731.707031 947.042969 731.734375 947.042969 C 731.734375 947.042969 731.75 947.042969 731.765625 947.042969 C 731.796875 947.042969 731.828125 947.027344 731.875 947 C 731.886719 947 731.917969 946.96875 731.933594 946.953125 C 731.933594 946.953125 731.949219 946.9375 731.964844 946.921875 C 731.980469 946.921875 731.996094 946.890625 732.011719 946.875 C 732.011719 946.875 732.042969 946.84375 732.042969 946.832031 C 732.042969 946.816406 732.070312 946.800781 732.070312 946.785156 C 732.070312 946.769531 732.085938 946.753906 732.101562 946.738281 C 732.101562 946.722656 732.117188 946.707031 732.132812 946.675781 C 732.132812 946.660156 732.132812 946.648438 732.148438 946.617188 C 732.148438 946.601562 732.148438 946.585938 732.148438 946.554688 C 732.148438 946.539062 732.148438 946.523438 732.148438 946.492188 C 732.148438 946.480469 732.148438 946.449219 732.148438 946.433594 C 732.148438 946.417969 732.148438 946.402344 732.148438 946.371094 C 732.148438 946.355469 732.148438 946.324219 732.148438 946.3125 C 732.148438 946.296875 732.148438 946.28125 732.132812 946.25 C 732.132812 946.234375 732.132812 946.21875 732.117188 946.1875 C 732.117188 946.171875 732.101562 946.15625 732.085938 946.128906 C 732.085938 946.128906 732.085938 946.097656 732.070312 946.082031 L 730.070312 943.238281 C 730.070312 942.875 730.222656 942.523438 730.5 942.308594 C 730.527344 942.292969 730.542969 942.277344 730.574219 942.261719 C 730.972656 942.003906 731.535156 942.109375 731.84375 942.507812 L 733.949219 945.179688 C 733.980469 945.210938 733.996094 945.242188 734.027344 945.257812 C 734.027344 945.257812 734.027344 945.257812 734.042969 945.257812 C 734.074219 945.273438 734.089844 945.300781 734.117188 945.316406 C 734.148438 945.332031 734.179688 945.347656 734.210938 945.363281 C 734.210938 945.363281 734.210938 945.363281 734.226562 945.363281 C 734.257812 945.363281 734.285156 945.378906 734.332031 945.378906 C 734.363281 945.378906 734.378906 945.378906 734.410156 945.378906 C 734.441406 945.378906 734.425781 945.378906 734.441406 945.378906 C 734.441406 945.378906 734.453125 945.378906 734.46875 945.378906 C 734.5 945.378906 734.53125 945.378906 734.5625 945.378906 C 734.5625 945.378906 734.5625 945.378906 734.578125 945.378906 C 734.609375 945.378906 734.636719 945.363281 734.683594 945.332031 C 734.683594 945.332031 734.699219 945.332031 734.714844 945.332031 C 734.714844 945.332031 734.746094 945.316406 734.761719 945.300781 C 734.761719 945.300781 734.761719 945.300781 734.777344 945.289062 C 734.777344 945.289062 734.777344 945.289062 734.792969 945.289062 C 734.792969 945.289062 734.804688 945.273438 734.820312 945.257812 C 734.835938 945.257812 734.851562 945.226562 734.867188 945.210938 C 734.867188 945.210938 734.898438 945.179688 734.898438 945.164062 C 734.898438 945.148438 734.929688 945.132812 734.929688 945.117188 C 734.929688 945.105469 734.945312 945.089844 734.960938 945.074219 C 734.960938 945.058594 734.972656 945.042969 734.972656 945.027344 C 734.972656 945.011719 734.972656 944.996094 734.988281 944.964844 C 734.988281 944.949219 734.988281 944.9375 734.988281 944.90625 C 734.988281 944.890625 734.988281 944.859375 734.988281 944.84375 C 734.988281 944.828125 734.988281 944.796875 734.988281 944.78125 C 734.988281 944.769531 734.988281 944.738281 734.988281 944.722656 C 734.988281 944.707031 734.988281 944.675781 734.988281 944.660156 C 734.988281 944.644531 734.988281 944.613281 734.972656 944.601562 C 734.972656 944.585938 734.972656 944.570312 734.960938 944.539062 C 734.960938 944.523438 734.945312 944.507812 734.929688 944.476562 C 734.929688 944.476562 734.929688 944.460938 734.914062 944.445312 L 733.859375 942.84375 C 733.585938 942.429688 733.644531 941.878906 733.980469 941.574219 C 733.996094 941.558594 734.027344 941.542969 734.042969 941.515625 C 734.285156 941.332031 734.59375 941.238281 734.898438 941.285156 C 735.019531 941.285156 735.128906 941.359375 735.203125 941.46875 L 737.160156 943.941406 C 737.371094 944.203125 737.753906 944.25 738.015625 944.050781 C 738.058594 944.003906 738.105469 943.957031 738.152344 943.898438 C 738.320312 943.699219 738.351562 943.394531 738.199219 943.164062 L 736.882812 941.175781 C 736.882812 940.8125 737.035156 940.460938 737.328125 940.230469 C 737.359375 940.214844 737.371094 940.199219 737.402344 940.183594 C 737.800781 939.925781 738.367188 940.03125 738.671875 940.429688 C 739.25 941.175781 739.847656 941.925781 740.445312 942.660156 C 740.917969 943.253906 741.300781 943.699219 741.574219 944.050781 C 742.351562 944.996094 742.503906 945.179688 742.703125 945.625 C 743.054688 946.386719 743.085938 946.859375 743.117188 947.441406 C 743.148438 948.066406 743.191406 948.785156 743.621094 949.929688 L 744.628906 952.007812 L 744.675781 952.085938 C 745.269531 952.988281 745.042969 954.207031 744.15625 954.820312 Z M 744.1875 954.894531 " fill-opacity="1" fill-rule="nonzero"/></g><g fill="#4c5a89" fill-opacity="1"><g transform="translate(659.417014, 951.671195)"><g><path d="M 6.28125 -14.0625 C 7.238281 -14.0625 8.039062 -13.882812 8.6875 -13.53125 C 9.34375 -13.1875 9.851562 -12.703125 10.21875 -12.078125 C 10.582031 -11.460938 10.804688 -10.757812 10.890625 -9.96875 L 9.046875 -9.96875 C 8.972656 -10.832031 8.6875 -11.503906 8.1875 -11.984375 C 7.6875 -12.460938 7.003906 -12.703125 6.140625 -12.703125 C 5.398438 -12.703125 4.773438 -12.53125 4.265625 -12.1875 C 3.765625 -11.84375 3.515625 -11.3125 3.515625 -10.59375 C 3.515625 -9.84375 3.742188 -9.273438 4.203125 -8.890625 C 4.660156 -8.515625 5.414062 -8.207031 6.46875 -7.96875 C 7.988281 -7.625 9.128906 -7.117188 9.890625 -6.453125 C 10.648438 -5.785156 11.03125 -4.867188 11.03125 -3.703125 C 11.03125 -2.890625 10.816406 -2.1875 10.390625 -1.59375 C 9.972656 -1 9.410156 -0.535156 8.703125 -0.203125 C 7.992188 0.117188 7.191406 0.28125 6.296875 0.28125 C 4.773438 0.28125 3.554688 -0.0820312 2.640625 -0.8125 C 1.722656 -1.550781 1.191406 -2.585938 1.046875 -3.921875 L 2.875 -3.921875 C 3.070312 -3.015625 3.472656 -2.3125 4.078125 -1.8125 C 4.691406 -1.320312 5.441406 -1.078125 6.328125 -1.078125 C 7.117188 -1.078125 7.789062 -1.28125 8.34375 -1.6875 C 8.90625 -2.09375 9.1875 -2.65625 9.1875 -3.375 C 9.1875 -4.21875 8.925781 -4.859375 8.40625 -5.296875 C 7.894531 -5.734375 7.03125 -6.09375 5.8125 -6.375 C 5 -6.5625 4.28125 -6.804688 3.65625 -7.109375 C 3.039062 -7.421875 2.554688 -7.820312 2.203125 -8.3125 C 1.847656 -8.800781 1.671875 -9.425781 1.671875 -10.1875 C 1.671875 -10.988281 1.878906 -11.675781 2.296875 -12.25 C 2.710938 -12.832031 3.269531 -13.28125 3.96875 -13.59375 C 4.664062 -13.90625 5.4375 -14.0625 6.28125 -14.0625 Z M 6.28125 -14.0625 "/></g></g></g><g fill="#4c5a89" fill-opacity="1"><g transform="translate(671.506425, 951.671195)"><g><path d="M 15.5625 -10.59375 L 12.1875 0 L 10.15625 0 L 7.796875 -8.90625 L 5.4375 0 L 3.390625 0 L 0.015625 -10.59375 L 2 -10.59375 L 4.453125 -1.640625 L 6.78125 -10.59375 L 8.90625 -10.59375 L 11.265625 -1.703125 L 13.734375 -10.59375 Z M 15.5625 -10.59375 "/></g></g></g><g fill="#4c5a89" fill-opacity="1"><g transform="translate(687.592291, 951.671195)"><g><path d="M 2.34375 -14.0625 C 2.644531 -14.0625 2.898438 -13.953125 3.109375 -13.734375 C 3.328125 -13.523438 3.4375 -13.269531 3.4375 -12.96875 C 3.4375 -12.664062 3.328125 -12.40625 3.109375 -12.1875 C 2.898438 -11.976562 2.644531 -11.875 2.34375 -11.875 C 2.03125 -11.875 1.765625 -11.976562 1.546875 -12.1875 C 1.335938 -12.40625 1.234375 -12.664062 1.234375 -12.96875 C 1.234375 -13.269531 1.335938 -13.523438 1.546875 -13.734375 C 1.765625 -13.953125 2.03125 -14.0625 2.34375 -14.0625 Z M 3.203125 0 L 1.484375 0 L 1.484375 -10.59375 L 3.203125 -10.59375 Z M 3.203125 0 "/></g></g></g><g fill="#4c5a89" fill-opacity="1"><g transform="translate(692.747865, 951.671195)"><g><path d="M 6.796875 -10.875 C 7.835938 -10.875 8.710938 -10.632812 9.421875 -10.15625 C 10.128906 -9.6875 10.671875 -9.046875 11.046875 -8.234375 C 11.421875 -7.421875 11.609375 -6.492188 11.609375 -5.453125 C 11.609375 -4.148438 11.367188 -3.070312 10.890625 -2.21875 C 10.410156 -1.375 9.773438 -0.742188 8.984375 -0.328125 C 8.203125 0.078125 7.351562 0.28125 6.4375 0.28125 C 6 0.28125 5.53125 0.21875 5.03125 0.09375 C 4.539062 -0.03125 4.160156 -0.203125 3.890625 -0.421875 L 3.203125 -1.453125 L 3.203125 3.921875 L 1.484375 3.921875 L 1.484375 -10.59375 L 3.203125 -10.59375 L 3.203125 -8.890625 L 4 -10.03125 C 4.300781 -10.28125 4.707031 -10.484375 5.21875 -10.640625 C 5.738281 -10.796875 6.265625 -10.875 6.796875 -10.875 Z M 6.4375 -1.046875 C 7.363281 -1.046875 8.144531 -1.398438 8.78125 -2.109375 C 9.414062 -2.816406 9.734375 -3.863281 9.734375 -5.25 C 9.734375 -6.050781 9.613281 -6.773438 9.375 -7.421875 C 9.132812 -8.078125 8.773438 -8.59375 8.296875 -8.96875 C 7.828125 -9.351562 7.238281 -9.546875 6.53125 -9.546875 C 5.945312 -9.546875 5.398438 -9.410156 4.890625 -9.140625 C 4.390625 -8.867188 3.984375 -8.429688 3.671875 -7.828125 C 3.359375 -7.222656 3.203125 -6.410156 3.203125 -5.390625 L 3.203125 -4.8125 C 3.203125 -3.90625 3.363281 -3.171875 3.6875 -2.609375 C 4.007812 -2.054688 4.421875 -1.65625 4.921875 -1.40625 C 5.421875 -1.164062 5.925781 -1.046875 6.4375 -1.046875 Z M 6.4375 -1.046875 "/></g></g></g><g fill="#4c5a89" fill-opacity="1"><g transform="translate(705.356824, 951.671195)"><g><path d="M 10.171875 -5.59375 C 10.171875 -5.507812 10.171875 -5.398438 10.171875 -5.265625 C 10.171875 -5.128906 10.15625 -4.96875 10.125 -4.78125 L 2.453125 -4.78125 C 2.503906 -3.84375 2.671875 -3.097656 2.953125 -2.546875 C 3.242188 -2.003906 3.609375 -1.617188 4.046875 -1.390625 C 4.492188 -1.160156 4.976562 -1.046875 5.5 -1.046875 C 6.1875 -1.046875 6.78125 -1.25 7.28125 -1.65625 C 7.789062 -2.070312 8.109375 -2.660156 8.234375 -3.421875 L 10.03125 -3.421875 C 9.894531 -2.566406 9.597656 -1.863281 9.140625 -1.3125 C 8.679688 -0.769531 8.128906 -0.367188 7.484375 -0.109375 C 6.835938 0.148438 6.148438 0.28125 5.421875 0.28125 C 4.492188 0.28125 3.664062 0.078125 2.9375 -0.328125 C 2.21875 -0.734375 1.644531 -1.34375 1.21875 -2.15625 C 0.800781 -2.976562 0.59375 -4.007812 0.59375 -5.25 C 0.59375 -6.394531 0.8125 -7.390625 1.25 -8.234375 C 1.695312 -9.078125 2.300781 -9.726562 3.0625 -10.1875 C 3.820312 -10.644531 4.679688 -10.875 5.640625 -10.875 C 6.609375 -10.875 7.425781 -10.648438 8.09375 -10.203125 C 8.769531 -9.753906 9.285156 -9.132812 9.640625 -8.34375 C 9.992188 -7.550781 10.171875 -6.632812 10.171875 -5.59375 Z M 5.59375 -9.546875 C 4.757812 -9.546875 4.054688 -9.253906 3.484375 -8.671875 C 2.921875 -8.085938 2.585938 -7.226562 2.484375 -6.09375 L 8.4375 -6.09375 C 8.351562 -7.195312 8.070312 -8.046875 7.59375 -8.640625 C 7.125 -9.242188 6.457031 -9.546875 5.59375 -9.546875 Z M 5.59375 -9.546875 "/></g></g></g></svg>