<svg xmlns="http://www.w3.org/2000/svg" xmlns:xlink="http://www.w3.org/1999/xlink" width="1200" zoomAndPan="magnify" viewBox="0 0 900 1124.99995" height="1500" preserveAspectRatio="xMidYMid meet" version="1.0"><defs><clipPath id="0082fd4bd8"><path d="M 795 0.160156 L 810 0.160156 L 810 15 L 795 15 Z M 795 0.160156 " clip-rule="nonzero"/></clipPath><clipPath id="8b4c60167a"><path d="M 754 0.160156 L 770 0.160156 L 770 15 L 754 15 Z M 754 0.160156 " clip-rule="nonzero"/></clipPath><clipPath id="b0c21dd17c"><path d="M 714.054688 258 L 729 258 L 729 273 L 714.054688 273 Z M 714.054688 258 " clip-rule="nonzero"/></clipPath><clipPath id="31faee22ee"><path d="M 714.054688 215 L 729 215 L 729 230 L 714.054688 230 Z M 714.054688 215 " clip-rule="nonzero"/></clipPath><clipPath id="d4637d030a"><path d="M 714.054688 172 L 729 172 L 729 187 L 714.054688 187 Z M 714.054688 172 " clip-rule="nonzero"/></clipPath><clipPath id="ff06e8b1c9"><path d="M 714.054688 129 L 729 129 L 729 144 L 714.054688 144 Z M 714.054688 129 " clip-rule="nonzero"/></clipPath><clipPath id="866d1f4fca"><path d="M 714.054688 86 L 729 86 L 729 101 L 714.054688 101 Z M 714.054688 86 " clip-rule="nonzero"/></clipPath><clipPath id="30ffc9718b"><path d="M 714.054688 43 L 729 43 L 729 58 L 714.054688 58 Z M 714.054688 43 " clip-rule="nonzero"/></clipPath><clipPath id="117bf5ff18"><path d="M 714.054688 0.160156 L 729 0.160156 L 729 15 L 714.054688 15 Z M 714.054688 0.160156 " clip-rule="nonzero"/></clipPath></defs><path fill="#00ff9d" d="M 795.710938 272.613281 L 795.710938 258.328125 L 809.996094 258.328125 L 809.996094 272.613281 Z M 795.710938 272.613281 " fill-opacity="1" fill-rule="nonzero"/><path fill="#00ff9d" d="M 795.710938 229.652344 L 795.710938 215.367188 L 809.996094 215.367188 L 809.996094 229.652344 Z M 795.710938 229.652344 " fill-opacity="1" fill-rule="nonzero"/><path fill="#00ff9d" d="M 795.710938 186.683594 L 795.710938 172.398438 L 809.996094 172.398438 L 809.996094 186.683594 Z M 795.710938 186.683594 " fill-opacity="1" fill-rule="nonzero"/><path fill="#00ff9d" d="M 795.710938 143.722656 L 795.710938 129.4375 L 809.996094 129.4375 L 809.996094 143.722656 Z M 795.710938 143.722656 " fill-opacity="1" fill-rule="nonzero"/><path fill="#00ff9d" d="M 795.710938 100.761719 L 795.710938 86.476562 L 809.996094 86.476562 L 809.996094 100.761719 Z M 795.710938 100.761719 " fill-opacity="1" fill-rule="nonzero"/><path fill="#00ff9d" d="M 795.710938 57.789062 L 795.710938 43.503906 L 809.996094 43.503906 L 809.996094 57.789062 Z M 795.710938 57.789062 " fill-opacity="1" fill-rule="nonzero"/><g clip-path="url(#0082fd4bd8)"><path fill="#00ff9d" d="M 795.710938 14.828125 L 795.710938 0.542969 L 809.996094 0.542969 L 809.996094 14.828125 Z M 795.710938 14.828125 " fill-opacity="1" fill-rule="nonzero"/></g><path fill="#00ff9d" d="M 754.882812 272.613281 L 754.882812 258.328125 L 769.167969 258.328125 L 769.167969 272.613281 Z M 754.882812 272.613281 " fill-opacity="1" fill-rule="nonzero"/><path fill="#00ff9d" d="M 754.882812 229.652344 L 754.882812 215.367188 L 769.167969 215.367188 L 769.167969 229.652344 Z M 754.882812 229.652344 " fill-opacity="1" fill-rule="nonzero"/><path fill="#00ff9d" d="M 754.882812 186.683594 L 754.882812 172.398438 L 769.167969 172.398438 L 769.167969 186.683594 Z M 754.882812 186.683594 " fill-opacity="1" fill-rule="nonzero"/><path fill="#00ff9d" d="M 754.882812 143.722656 L 754.882812 129.4375 L 769.167969 129.4375 L 769.167969 143.722656 Z M 754.882812 143.722656 " fill-opacity="1" fill-rule="nonzero"/><path fill="#00ff9d" d="M 754.882812 100.761719 L 754.882812 86.476562 L 769.167969 86.476562 L 769.167969 100.761719 Z M 754.882812 100.761719 " fill-opacity="1" fill-rule="nonzero"/><path fill="#00ff9d" d="M 754.882812 57.789062 L 754.882812 43.503906 L 769.167969 43.503906 L 769.167969 57.789062 Z M 754.882812 57.789062 " fill-opacity="1" fill-rule="nonzero"/><g clip-path="url(#8b4c60167a)"><path fill="#00ff9d" d="M 754.882812 14.828125 L 754.882812 0.542969 L 769.167969 0.542969 L 769.167969 14.828125 Z M 754.882812 14.828125 " fill-opacity="1" fill-rule="nonzero"/></g><g clip-path="url(#b0c21dd17c)"><path fill="#00ff9d" d="M 714.054688 272.613281 L 714.054688 258.328125 L 728.339844 258.328125 L 728.339844 272.613281 Z M 714.054688 272.613281 " fill-opacity="1" fill-rule="nonzero"/></g><g clip-path="url(#31faee22ee)"><path fill="#00ff9d" d="M 714.054688 229.652344 L 714.054688 215.367188 L 728.339844 215.367188 L 728.339844 229.652344 Z M 714.054688 229.652344 " fill-opacity="1" fill-rule="nonzero"/></g><g clip-path="url(#d4637d030a)"><path fill="#00ff9d" d="M 714.054688 186.683594 L 714.054688 172.398438 L 728.339844 172.398438 L 728.339844 186.683594 Z M 714.054688 186.683594 " fill-opacity="1" fill-rule="nonzero"/></g><g clip-path="url(#ff06e8b1c9)"><path fill="#00ff9d" d="M 714.054688 143.722656 L 714.054688 129.4375 L 728.339844 129.4375 L 728.339844 143.722656 Z M 714.054688 143.722656 " fill-opacity="1" fill-rule="nonzero"/></g><g clip-path="url(#866d1f4fca)"><path fill="#00ff9d" d="M 714.054688 100.761719 L 714.054688 86.476562 L 728.339844 86.476562 L 728.339844 100.761719 Z M 714.054688 100.761719 " fill-opacity="1" fill-rule="nonzero"/></g><g clip-path="url(#30ffc9718b)"><path fill="#00ff9d" d="M 714.054688 57.789062 L 714.054688 43.503906 L 728.339844 43.503906 L 728.339844 57.789062 Z M 714.054688 57.789062 " fill-opacity="1" fill-rule="nonzero"/></g><g clip-path="url(#117bf5ff18)"><path fill="#00ff9d" d="M 714.054688 14.828125 L 714.054688 0.542969 L 728.339844 0.542969 L 728.339844 14.828125 Z M 714.054688 14.828125 " fill-opacity="1" fill-rule="nonzero"/></g></svg>